<svg xmlns="http://www.w3.org/2000/svg" xmlns:xlink="http://www.w3.org/1999/xlink" version="1.1" id="Layer_1" x="0px" y="0px" viewBox="0 0 128 128" enable-background="new 0 0 128 128" xml:space="preserve" width="128px" height="128px">
<path fill="#66D81D" d="M11.2,86.6c-3,0-5.5-2.3-5.8-5.3C4.6,72.8,10,63.8,17.5,61.4c6.3-2,11.8,0.4,16.3,2.4  c2.5,1.1,4.8,2.1,6.7,2.2c2.4,0.2,5-1.1,6.9-3.3c5.5-6.4,7.6-17.1,4.8-23.9c-1.1-2.6-2.6-4.4-4.2-4.9c-3.1-1-4.8-4.3-3.7-7.4  c1-3.1,4.3-4.8,7.4-3.7c4.8,1.6,8.8,5.6,11.3,11.4c4.6,10.8,1.8,26.4-6.7,36.1c-4.3,5-10.5,7.7-16.6,7.3c-4-0.3-7.5-1.8-10.7-3.2  c-3.7-1.6-6.1-2.6-8-2c-2.1,0.7-4.3,4.2-4,7.6c0.3,3.2-2,6.1-5.2,6.4C11.6,86.6,11.4,86.6,11.2,86.6z"/>
<path fill="#FF9000" d="M116.8,86.6c-0.2,0-0.4,0-0.6,0c-3.2-0.3-5.6-3.2-5.2-6.4c0.3-3.4-1.9-6.9-4-7.6c-1.9-0.6-4.3,0.3-8,2  c-3.1,1.4-6.7,2.9-10.7,3.2c-6.1,0.4-12.3-2.3-16.6-7.3c-8.4-9.8-11.3-25.3-6.7-36.1c2.5-5.8,6.5-9.8,11.3-11.4  c3.1-1,6.4,0.7,7.4,3.7c1,3.1-0.7,6.4-3.7,7.4c-1.5,0.5-3.1,2.3-4.2,4.9c-2.9,6.8-0.8,17.5,4.8,23.9c1.9,2.2,4.6,3.5,6.9,3.3  c2-0.1,4.3-1.1,6.7-2.2c4.5-2,10-4.4,16.3-2.4c7.5,2.4,12.9,11.3,12.1,19.9C122.3,84.3,119.7,86.6,116.8,86.6z"/>
<path fill="#FFCE00" d="M19.3,105.2c-0.1,0-0.3,0-0.4,0c-3.2-0.2-5.7-3-5.4-6.2c0.7-9.6,7.5-16.2,13.6-19.2c3.1-1.5,6.1-2.4,9.1-3.3  c2.4-0.7,4.7-1.4,6.7-2.3c3.5-1.6,6.8-4.3,9.5-7.8c2-2.6,5.6-3,8.2-1.1c2.6,2,3,5.6,1.1,8.2c-3.8,5-8.6,8.9-13.9,11.3  c-2.9,1.3-5.7,2.1-8.4,2.9c-2.6,0.7-5,1.5-7.2,2.5c-3.2,1.6-6.8,4.9-7.1,9.5C25,102.9,22.4,105.2,19.3,105.2z"/>
<path fill="#31F7D1" d="M108.7,105.2c-3.1,0-5.6-2.4-5.8-5.5c-0.3-4.6-3.9-7.9-7.1-9.5c-2.2-1.1-4.6-1.8-7.2-2.5  c-2.7-0.8-5.5-1.6-8.4-2.9c-5.3-2.4-10-6.3-13.9-11.3c-2-2.6-1.5-6.2,1.1-8.2s6.2-1.5,8.2,1.1c2.7,3.5,6,6.2,9.5,7.8  c2.1,0.9,4.3,1.6,6.7,2.3c3,0.9,6,1.7,9.1,3.3c6.2,3,13,9.7,13.6,19.2c0.2,3.2-2.2,6-5.4,6.2C108.9,105.2,108.8,105.2,108.7,105.2z"/>
<path fill="#7C56F4" d="M54.7,126.2c-2,0-4-1.1-5.1-3c-7.2-12.7-1.6-26.6,4-37.2c0.4-0.8,0.9-1.7,1.4-2.5c4.7-8.8,9.2-17.1,7.7-24.9  c-0.6-3.2,1.4-6.3,4.6-6.9c3.2-0.6,6.3,1.4,6.9,4.6c2.3,11.9-3.6,23-8.8,32.7c-0.4,0.8-0.9,1.7-1.3,2.5c-6.5,12.2-7.7,19.8-4.2,26  c1.6,2.8,0.6,6.4-2.2,8C56.6,125.9,55.6,126.2,54.7,126.2z"/>
<path fill="#24C3FF" d="M73.3,126.2c-1,0-2-0.2-2.9-0.8c-2.8-1.6-3.8-5.2-2.2-8c3.5-6.2,2.3-13.7-4.2-26c-0.4-0.8-0.9-1.7-1.3-2.5  c-5.2-9.8-11.2-20.8-8.8-32.7c0.6-3.2,3.7-5.2,6.9-4.6c3.2,0.6,5.2,3.7,4.6,6.9c-1.5,7.8,2.9,16.1,7.7,24.9c0.5,0.8,0.9,1.7,1.4,2.5  c5.6,10.6,11.2,24.5,4.1,37.2C77.4,125.1,75.4,126.2,73.3,126.2z"/>
<path fill="#FF99CA" d="M33.7,111.2c-2.6,0-5-1.7-5.8-4.3c-1-3.2,0.8-6.5,4-7.5c2.8-0.8,5.8-4.3,8.3-9.4c1.3-2.7,2.4-5.5,3.6-8.5  c1.2-3,2.4-6.2,3.9-9.2c3.7-7.6,8.8-14.2,14.9-19c2.6-2.1,6.4-1.7,8.5,0.9c2.1,2.6,1.7,6.4-0.9,8.5c-4.7,3.7-8.7,8.9-11.6,14.9  c-1.3,2.6-2.3,5.4-3.5,8.3c-1.2,3.1-2.5,6.3-4,9.5c-4.1,8.3-9.5,13.7-15.6,15.6C34.8,111.1,34.2,111.2,33.7,111.2z"/>
<path fill="#7C56F4" d="M94.3,110.9c-0.6,0-1.2-0.1-1.8-0.3c-6.1-1.9-11.5-7.2-15.6-15.6c-1.5-3.1-2.8-6.3-4-9.5  c-1.1-2.9-2.2-5.7-3.5-8.3c-2.9-6-6.9-11.2-11.6-14.9c-2.6-2.1-3-5.9-0.9-8.5s5.9-3,8.5-0.9c6,4.8,11.2,11.4,14.9,19  c1.5,3,2.7,6.2,3.9,9.2c1.2,3,2.3,5.9,3.6,8.5c2.5,5.1,5.5,8.5,8.3,9.4c3.2,1,5,4.3,4,7.5C99.3,109.2,96.9,110.9,94.3,110.9z"/>
<g>
	<path fill="#270056" d="M94.6,33.7c0,17.1-15,32-30.6,32c-10.9172,0-21.9375-7.6863-27.281-18.3535   C34.6226,43.1617,33.4,38.5182,33.4,33.7c0-9.3578,4.0428-17.7573,10.5061-23.4449C49.2535,5.5494,56.2578,2.7,64,2.7   C81.1,2.7,94.6,16.6,94.6,33.7z"/>
	<path fill="#7C56F4" d="M44.7,28.6c-1.5,0-2.7-1.2-2.7-2.7c0-7.8,6.4-14.2,14.2-14.2c1.5,0,2.7,1.2,2.7,2.7s-1.2,2.7-2.7,2.7   c-4.8,0-8.8,3.9-8.8,8.8C47.4,27.4,46.2,28.6,44.7,28.6z"/>
</g>
<g>
	<path fill="#FFFFFF" d="M40.7,39.4c-8.8,0-15.9,7.1-15.9,15.9S32,71.2,40.7,71.2s15.9-7.1,15.9-15.9S49.4,39.4,40.7,39.4z"/>
	<circle fill="#270056" cx="40.7" cy="55.3" r="10.3"/>
	<circle fill="#FFFFFF" cx="45" cy="51.2" r="5"/>
</g>
<g>
	<path fill="#FFFFFF" d="M87.3,39.4c-8.8,0-15.9,7.1-15.9,15.9s7.2,15.9,15.9,15.9s15.9-7.1,15.9-15.9S96.1,39.4,87.3,39.4z"/>
	<circle fill="#270056" cx="87.3" cy="55.3" r="10.3"/>
	<circle fill="#FFFFFF" cx="91.7" cy="51.2" r="5"/>
</g>
</svg>